<?xml version="1.0" encoding="UTF-8" standalone="no"?>
<svg
   id="svg"
   version="1.1"
   width="1024"
   height="1024"
   viewBox="0 0 1024 1024"
   sodipodi:docname="logo curriculo online sem fundo.svg"
   inkscape:version="1.2.1 (9c6d41e410, 2022-07-14)"
   inkscape:export-filename="favicon.ico.png"
   inkscape:export-xdpi="96"
   inkscape:export-ydpi="96"
   xml:space="preserve"
   xmlns:inkscape="http://www.inkscape.org/namespaces/inkscape"
   xmlns:sodipodi="http://sodipodi.sourceforge.net/DTD/sodipodi-0.dtd"
   xmlns="http://www.w3.org/2000/svg"
   xmlns:svg="http://www.w3.org/2000/svg"><defs
     id="defs19" /><sodipodi:namedview
     id="namedview17"
     pagecolor="#ffffff"
     bordercolor="#000000"
     borderopacity="0.25"
     inkscape:showpageshadow="2"
     inkscape:pageopacity="0.0"
     inkscape:pagecheckerboard="0"
     inkscape:deskcolor="#d1d1d1"
     showgrid="false"
     showguides="false"
     inkscape:zoom="0.25377123"
     inkscape:cx="210.8198"
     inkscape:cy="662.01357"
     inkscape:window-width="1280"
     inkscape:window-height="705"
     inkscape:window-x="-8"
     inkscape:window-y="-8"
     inkscape:window-maximized="1"
     inkscape:current-layer="svg" /><g
     id="g1072"
     transform="translate(-33.420381,51.118324)"><path
       id="rect894"
       style="fill:#ffffff;stroke:none"
       d="M 419.1007,440.70551 446.16579,424.80728 601.58318,410.25112 754.2197,492.32365 716.53733,943.66599 408.8829,943.42936 Z"
       sodipodi:nodetypes="ccccccc" /><path
       id="rect563"
       style="fill:#0000ff;stroke-width:2.18601;stroke:#000000"
       d="M 427.24311,433.50348 192.3194,561.82495 94.034248,943.92021 H 251.21364 l 22.04798,-91.89361 19.12334,91.89361 H 512.97577 C 508.79218,783.32599 480.60957,613.34237 427.24311,433.50348 Z m 220.27063,0 c -53.36646,179.83889 -81.5491,349.82251 -85.73267,510.41673 h 220.59081 l 19.12335,-91.89361 22.04798,91.89361 H 980.72686 L 882.43744,561.82495 Z" /><path
       id="rect452"
       style="fill:#ff0000;stroke-width:2.18601"
       d="m 531.02487,495.12771 c -10.93682,0 -19.73816,8.80561 -19.73816,19.74242 v 9.8712 c 0,9.99399 7.3502,18.20415 16.96295,19.54603 -13.10025,104.41765 -20.5319,211.26677 1.78894,330.86489 l 50.385,45.35121 41.4147,-47.32376 C 594.03326,762.70591 560.39912,650.28744 545.91279,544.2532 c 9.48336,-1.45381 16.69825,-9.60936 16.69825,-19.51187 v -9.8712 c 0,-10.93681 -8.80139,-19.74242 -19.73816,-19.74242 z" /><path
       id="rect510"
       style="fill:#de8787;stroke-width:2.18601"
       d="m 524.0098,64.001154 c -75.52766,-1.50942 -153.34932,57.017016 -122.95892,177.886736 3.10552,12.05575 -54.25157,21.00828 29.21656,103.76726 0.52899,0.52452 -13.21626,54.1244 -5.4693,60.76004 l 73.27839,62.77101 5.47355,8.44089 16.30545,47.56712 17.52224,-4.3891 17.52652,4.3891 16.30542,-47.56712 5.46932,-8.44089 73.28262,-62.77101 c 7.74697,-6.63564 -6.00255,-60.23552 -5.47355,-60.76004 83.46813,-82.75898 26.11532,-91.71151 29.22084,-103.76726 C 705.89904,113.86022 616.67979,55.797269 537.37777,64.919104 532.94405,64.409107 528.48256,64.09054 524.0098,64.001154 Z" /><path
       id="rect510-0"
       style="opacity:0.98;fill:#000000;stroke-width:2.18601"
       d="M 524.8696,64.281377 C 449.34194,62.771957 371.52028,121.2984 401.91067,242.16811 c -9.64951,-37.50976 12.76437,-32.79179 14.8024,-44.10625 13.13876,-26.96494 26.64249,-40.89546 49.86922,-16.11236 40.99995,43.74726 195.37708,61.03815 207.98645,60.21861 32.1901,-128.02766 -57.02915,-186.090613 -136.33117,-176.968783 -4.43372,-0.50999 -8.89521,-0.82856 -13.36797,-0.91795 z"
       sodipodi:nodetypes="sccsccs" /></g><g
     transform="matrix(0.05914496,0.11761352,0.12611303,-0.04932578,-848.04981,425.39522)"
     fill="#000000"
     stroke="none"
     id="g129"
     style="fill:#0000ff;stroke:#000080"
     inkscape:transform-center-x="-626.78647"
     inkscape:transform-center-y="-570.95319"><path
       id="path127"
       style="fill:#000000;stroke:#ffffff"
       d="m 4140,6001 c 17.3438,-54.0285 16.0704,36.1826 0,0 z m 1487,642 c -2.2142,-83.3352 31.9006,7.3718 0,0 z M 3420,12204 C 2053.0453,12097.016 848.21319,10994.777 633.02344,9638.0454 338.98575,8151.7357 1310.709,6557.1151 2764.393,6132.7274 3209.5565,5981.8912 3689.7904,5974.4924 4150.75,6008.875 5776.0394,3739.3595 6408.873,3187.5925 6872.4936,4568.1669 6811.8538,4936.4293 5639.0291,6774.7206 5974.4902,6980.2606 6957.5367,7998.7315 7085.4983,9700.5968 6267.2547,10855.225 5650.6057,11780.922 4524.0108,12298.804 3420,12204 Z m 630.3985,-568.002 C 5242.158,11503.625 6205.8038,10575.091 6294.4458,9378.8174 6415.183,8320.6784 5804.0593,7237.2238 4829.3208,6803.083 4021.9871,6381.7227 3075.6232,6438.7263 2320.131,6956.5109 1221.8564,7623.9112 789.57264,9032.3482 1351.0501,10175.22 c 455.7946,1017.269 1605.8046,1599.21 2699.3484,1460.778 z"
       sodipodi:nodetypes="cccccccccccccccccc" /></g></svg>
